<?xml version="1.0" encoding="UTF-8" standalone="no"?>
<!DOCTYPE svg PUBLIC "-//W3C//DTD SVG 1.1//EN"
 "http://www.w3.org/Graphics/SVG/1.1/DTD/svg11.dtd">
<!-- Generated by graphviz version 2.38.0 (20140413.2041)
 -->
<!-- Title: list Pages: 1 -->
<svg width="445pt" height="160pt"
 viewBox="14.40 14.40 430.40 145.40" xmlns="http://www.w3.org/2000/svg" xmlns:xlink="http://www.w3.org/1999/xlink">
<g id="graph0" class="graph" transform="scale(1 1) rotate(0) translate(18.4 141.4)">
<title>list</title>
<polygon fill="white" stroke="none" points="-4,4 -4,-127 412,-127 412,4 -4,4"/>
<!-- mem -->
<g id="node1" class="node"><title>mem</title>
<polygon fill="none" stroke="black" points="8,-77 8,-119 80,-119 80,-77 8,-77"/>
<text text-anchor="start" x="27.5" y="-100.8" font-family="Helvetica,sans-Serif" font-weight="bold" font-size="14.00">DICT</text>
<text text-anchor="start" x="16" y="-88.4" font-family="Helvetica,sans-Serif" font-style="italic" font-size="12.00">nitems = 3</text>
<polygon fill="none" stroke="black" points="80,-77 80,-119 112,-119 112,-77 80,-77"/>
<text text-anchor="start" x="88" y="-94.3" font-family="Helvetica,sans-Serif" font-size="14.00" fill="gray">#0</text>
<polygon fill="none" stroke="black" points="112,-77 112,-119 144,-119 144,-77 112,-77"/>
<text text-anchor="start" x="120" y="-94.3" font-family="Helvetica,sans-Serif" font-size="14.00">#1</text>
<polygon fill="none" stroke="black" points="144,-77 144,-119 176,-119 176,-77 144,-77"/>
<text text-anchor="start" x="152" y="-94.3" font-family="Helvetica,sans-Serif" font-size="14.00" fill="gray">#2</text>
<polygon fill="none" stroke="black" points="176,-77 176,-119 208,-119 208,-77 176,-77"/>
<text text-anchor="start" x="184" y="-94.3" font-family="Helvetica,sans-Serif" font-size="14.00" fill="gray">#3</text>
<polygon fill="none" stroke="black" points="208,-77 208,-119 240,-119 240,-77 208,-77"/>
<text text-anchor="start" x="216" y="-94.3" font-family="Helvetica,sans-Serif" font-size="14.00">#4</text>
<polygon fill="none" stroke="black" points="240,-77 240,-119 272,-119 272,-77 240,-77"/>
<text text-anchor="start" x="248" y="-94.3" font-family="Helvetica,sans-Serif" font-size="14.00" fill="gray">#5</text>
<polygon fill="none" stroke="black" points="272,-77 272,-119 304,-119 304,-77 272,-77"/>
<text text-anchor="start" x="280" y="-94.3" font-family="Helvetica,sans-Serif" font-size="14.00" fill="gray">#6</text>
<polygon fill="none" stroke="black" points="304,-77 304,-119 336,-119 336,-77 304,-77"/>
<text text-anchor="start" x="312" y="-94.3" font-family="Helvetica,sans-Serif" font-size="14.00">#7</text>
<polygon fill="none" stroke="black" points="336,-77 336,-119 368,-119 368,-77 336,-77"/>
<text text-anchor="start" x="344" y="-94.3" font-family="Helvetica,sans-Serif" font-size="14.00" fill="gray">#8</text>
<polygon fill="none" stroke="black" points="368,-77 368,-119 400,-119 400,-77 368,-77"/>
<text text-anchor="start" x="376" y="-94.3" font-family="Helvetica,sans-Serif" font-size="14.00" fill="gray">#9</text>
</g>
<!-- apple -->
<g id="node2" class="node"><title>apple</title>
<path fill="none" stroke="black" d="M305,-0.5C305,-0.5 379,-0.5 379,-0.5 385,-0.5 391,-6.5 391,-12.5 391,-12.5 391,-24.5 391,-24.5 391,-30.5 385,-36.5 379,-36.5 379,-36.5 305,-36.5 305,-36.5 299,-36.5 293,-30.5 293,-24.5 293,-24.5 293,-12.5 293,-12.5 293,-6.5 299,-0.5 305,-0.5"/>
<text text-anchor="middle" x="321" y="-14.8" font-family="Helvetica,sans-Serif" font-size="14.00">&#39;apple&#39;</text>
<polyline fill="none" stroke="black" points="349,-0.5 349,-36.5 "/>
<text text-anchor="middle" x="370" y="-14.8" font-family="Helvetica,sans-Serif" font-size="14.00">&#39;red&#39;</text>
</g>
<!-- mem&#45;&gt;apple -->
<g id="edge1" class="edge"><title>mem:f7&#45;&gt;apple</title>
<path fill="none" stroke="black" d="M320,-76C320,-65.6874 323.222,-54.9933 327.2,-45.7201"/>
<polygon fill="black" stroke="black" points="330.381,-47.1802 331.515,-36.6462 324.06,-44.1736 330.381,-47.1802"/>
</g>
<!-- berry -->
<g id="node3" class="node"><title>berry</title>
<path fill="none" stroke="black" d="M185,-0.5C185,-0.5 263,-0.5 263,-0.5 269,-0.5 275,-6.5 275,-12.5 275,-12.5 275,-24.5 275,-24.5 275,-30.5 269,-36.5 263,-36.5 263,-36.5 185,-36.5 185,-36.5 179,-36.5 173,-30.5 173,-24.5 173,-24.5 173,-12.5 173,-12.5 173,-6.5 179,-0.5 185,-0.5"/>
<text text-anchor="middle" x="200" y="-14.8" font-family="Helvetica,sans-Serif" font-size="14.00">&#39;berry&#39;</text>
<polyline fill="none" stroke="black" points="227,-0.5 227,-36.5 "/>
<text text-anchor="middle" x="251" y="-14.8" font-family="Helvetica,sans-Serif" font-size="14.00">&#39;blue&#39;</text>
</g>
<!-- mem&#45;&gt;berry -->
<g id="edge2" class="edge"><title>mem:f4&#45;&gt;berry</title>
<path fill="none" stroke="black" d="M224,-76C224,-66.4822 224,-56.0625 224,-46.7919"/>
<polygon fill="black" stroke="black" points="227.5,-46.5598 224,-36.5599 220.5,-46.5599 227.5,-46.5598"/>
</g>
<!-- cherry -->
<g id="node4" class="node"><title>cherry</title>
<path fill="none" stroke="black" d="M63.5,-0.5C63.5,-0.5 142.5,-0.5 142.5,-0.5 148.5,-0.5 154.5,-6.5 154.5,-12.5 154.5,-12.5 154.5,-24.5 154.5,-24.5 154.5,-30.5 148.5,-36.5 142.5,-36.5 142.5,-36.5 63.5,-36.5 63.5,-36.5 57.5,-36.5 51.5,-30.5 51.5,-24.5 51.5,-24.5 51.5,-12.5 51.5,-12.5 51.5,-6.5 57.5,-0.5 63.5,-0.5"/>
<text text-anchor="middle" x="82" y="-14.8" font-family="Helvetica,sans-Serif" font-size="14.00">&#39;cherry&#39;</text>
<polyline fill="none" stroke="black" points="112.5,-0.5 112.5,-36.5 "/>
<text text-anchor="middle" x="133.5" y="-14.8" font-family="Helvetica,sans-Serif" font-size="14.00">&#39;red&#39;</text>
</g>
<!-- mem&#45;&gt;cherry -->
<g id="edge3" class="edge"><title>mem:f1&#45;&gt;cherry</title>
<path fill="none" stroke="black" d="M128,-76C128,-65.6507 124.449,-55.0769 120.023,-45.9178"/>
<polygon fill="black" stroke="black" points="123.023,-44.1064 115.207,-36.954 116.857,-47.4196 123.023,-44.1064"/>
</g>
</g>
</svg>
