<?xml version="1.0" encoding="UTF-8" standalone="no"?>
<!DOCTYPE svg PUBLIC "-//W3C//DTD SVG 1.1//EN"
 "http://www.w3.org/Graphics/SVG/1.1/DTD/svg11.dtd">
<!-- Generated by graphviz version 2.38.0 (20140413.2041)
 -->
<!-- Title: list Pages: 1 -->
<svg width="480pt" height="160pt"
 viewBox="14.40 14.40 465.90 145.40" xmlns="http://www.w3.org/2000/svg" xmlns:xlink="http://www.w3.org/1999/xlink">
<g id="graph0" class="graph" transform="scale(1 1) rotate(0) translate(18.4 141.4)">
<title>list</title>
<polygon fill="white" stroke="none" points="-4,4 -4,-127 447.5,-127 447.5,4 -4,4"/>
<!-- mem -->
<g id="node1" class="node"><title>mem</title>
<polygon fill="none" stroke="black" points="43.5,-77 43.5,-119 115.5,-119 115.5,-77 43.5,-77"/>
<text text-anchor="start" x="63" y="-100.8" font-family="Helvetica,sans-Serif" font-weight="bold" font-size="14.00">DICT</text>
<text text-anchor="start" x="51.5" y="-88.4" font-family="Helvetica,sans-Serif" font-style="italic" font-size="12.00">nitems = 3</text>
<polygon fill="none" stroke="black" points="115.5,-77 115.5,-119 147.5,-119 147.5,-77 115.5,-77"/>
<text text-anchor="start" x="123.5" y="-94.3" font-family="Helvetica,sans-Serif" font-size="14.00" fill="gray">#0</text>
<polygon fill="none" stroke="black" points="147.5,-77 147.5,-119 179.5,-119 179.5,-77 147.5,-77"/>
<text text-anchor="start" x="155.5" y="-94.3" font-family="Helvetica,sans-Serif" font-size="14.00">#1</text>
<polygon fill="none" stroke="black" points="179.5,-77 179.5,-119 211.5,-119 211.5,-77 179.5,-77"/>
<text text-anchor="start" x="187.5" y="-94.3" font-family="Helvetica,sans-Serif" font-size="14.00" fill="gray">#2</text>
<polygon fill="none" stroke="black" points="211.5,-77 211.5,-119 243.5,-119 243.5,-77 211.5,-77"/>
<text text-anchor="start" x="219.5" y="-94.3" font-family="Helvetica,sans-Serif" font-size="14.00" fill="gray">#3</text>
<polygon fill="none" stroke="black" points="243.5,-77 243.5,-119 275.5,-119 275.5,-77 243.5,-77"/>
<text text-anchor="start" x="251.5" y="-94.3" font-family="Helvetica,sans-Serif" font-size="14.00">#4</text>
<polygon fill="none" stroke="black" points="275.5,-77 275.5,-119 307.5,-119 307.5,-77 275.5,-77"/>
<text text-anchor="start" x="283.5" y="-94.3" font-family="Helvetica,sans-Serif" font-size="14.00" fill="gray">#5</text>
<polygon fill="none" stroke="black" points="307.5,-77 307.5,-119 339.5,-119 339.5,-77 307.5,-77"/>
<text text-anchor="start" x="315.5" y="-94.3" font-family="Helvetica,sans-Serif" font-size="14.00" fill="gray">#6</text>
<polygon fill="none" stroke="black" points="339.5,-77 339.5,-119 371.5,-119 371.5,-77 339.5,-77"/>
<text text-anchor="start" x="347.5" y="-94.3" font-family="Helvetica,sans-Serif" font-size="14.00">#7</text>
<polygon fill="none" stroke="black" points="371.5,-77 371.5,-119 403.5,-119 403.5,-77 371.5,-77"/>
<text text-anchor="start" x="379.5" y="-94.3" font-family="Helvetica,sans-Serif" font-size="14.00" fill="gray">#8</text>
<polygon fill="none" stroke="black" points="403.5,-77 403.5,-119 435.5,-119 435.5,-77 403.5,-77"/>
<text text-anchor="start" x="411.5" y="-94.3" font-family="Helvetica,sans-Serif" font-size="14.00" fill="gray">#9</text>
</g>
<!-- apple -->
<g id="node2" class="node"><title>apple</title>
<path fill="none" stroke="black" d="M324,-0.5C324,-0.5 431,-0.5 431,-0.5 437,-0.5 443,-6.5 443,-12.5 443,-12.5 443,-24.5 443,-24.5 443,-30.5 437,-36.5 431,-36.5 431,-36.5 324,-36.5 324,-36.5 318,-36.5 312,-30.5 312,-24.5 312,-24.5 312,-12.5 312,-12.5 312,-6.5 318,-0.5 324,-0.5"/>
<text text-anchor="middle" x="350" y="-14.8" font-family="Helvetica,sans-Serif" font-size="14.00">&#39;fur_color&#39;</text>
<polyline fill="none" stroke="black" points="388,-0.5 388,-36.5 "/>
<text text-anchor="middle" x="415.5" y="-14.8" font-family="Helvetica,sans-Serif" font-size="14.00">&#39;black&#39;</text>
</g>
<!-- mem&#45;&gt;apple -->
<g id="edge1" class="edge"><title>mem:f7&#45;&gt;apple</title>
<path fill="none" stroke="black" d="M355.5,-76C355.5,-65.6874 358.722,-54.9933 362.7,-45.7201"/>
<polygon fill="black" stroke="black" points="365.881,-47.1802 367.015,-36.6462 359.56,-44.1736 365.881,-47.1802"/>
</g>
<!-- berry -->
<g id="node3" class="node"><title>berry</title>
<path fill="none" stroke="black" d="M237,-0.5C237,-0.5 282,-0.5 282,-0.5 288,-0.5 294,-6.5 294,-12.5 294,-12.5 294,-24.5 294,-24.5 294,-30.5 288,-36.5 282,-36.5 282,-36.5 237,-36.5 237,-36.5 231,-36.5 225,-30.5 225,-24.5 225,-24.5 225,-12.5 225,-12.5 225,-6.5 231,-0.5 237,-0.5"/>
<text text-anchor="middle" x="247.5" y="-14.8" font-family="Helvetica,sans-Serif" font-size="14.00">&#39;age&#39;</text>
<polyline fill="none" stroke="black" points="270,-0.5 270,-36.5 "/>
<text text-anchor="middle" x="282" y="-14.8" font-family="Helvetica,sans-Serif" font-size="14.00">9</text>
</g>
<!-- mem&#45;&gt;berry -->
<g id="edge2" class="edge"><title>mem:f4&#45;&gt;berry</title>
<path fill="none" stroke="black" d="M259.5,-76C259.5,-66.4822 259.5,-56.0625 259.5,-46.7919"/>
<polygon fill="black" stroke="black" points="263,-46.5598 259.5,-36.5599 256,-46.5599 263,-46.5598"/>
</g>
<!-- cherry -->
<g id="node4" class="node"><title>cherry</title>
<path fill="none" stroke="black" d="M12,-0.5C12,-0.5 195,-0.5 195,-0.5 201,-0.5 207,-6.5 207,-12.5 207,-12.5 207,-24.5 207,-24.5 207,-30.5 201,-36.5 195,-36.5 195,-36.5 12,-36.5 12,-36.5 6,-36.5 0,-30.5 0,-24.5 0,-24.5 0,-12.5 0,-12.5 0,-6.5 6,-0.5 12,-0.5"/>
<text text-anchor="middle" x="81" y="-14.8" font-family="Helvetica,sans-Serif" font-size="14.00">&#39;chases_laser_pointers&#39;</text>
<polyline fill="none" stroke="black" points="162,-0.5 162,-36.5 "/>
<text text-anchor="middle" x="184.5" y="-14.8" font-family="Helvetica,sans-Serif" font-size="14.00">True</text>
</g>
<!-- mem&#45;&gt;cherry -->
<g id="edge3" class="edge"><title>mem:f1&#45;&gt;cherry</title>
<path fill="none" stroke="black" d="M163.5,-76C163.5,-62.6599 155.542,-51.5425 145.422,-42.7982"/>
<polygon fill="black" stroke="black" points="147.413,-39.914 137.358,-36.5765 143.137,-45.4562 147.413,-39.914"/>
</g>
</g>
</svg>
